<?xml version="1.0" encoding="utf-8"?>
<!-- Generator: Adobe Illustrator 25.3.1, SVG Export Plug-In . SVG Version: 6.00 Build 0)  -->
<svg version="1.1" id="Layer_1" xmlns="http://www.w3.org/2000/svg" xmlns:xlink="http://www.w3.org/1999/xlink" x="0px" y="0px"
	 viewBox="0 0 30 33" style="enable-background:new 0 0 30 33;" xml:space="preserve">
<style type="text/css">
	.st0{fill:url(#SVGID_1_);}
</style>
<g>
	
		<linearGradient id="SVGID_1_" gradientUnits="userSpaceOnUse" x1="-2.6815" y1="17.5" x2="32.6927" y2="17.5" gradientTransform="matrix(1 0 0 -1 0 34)">
		<stop  offset="0" style="stop-color:#59FF72"/>
		<stop  offset="1" style="stop-color:#329404"/>
	</linearGradient>
	<path class="st0" d="M23.6,33c-1.1-1.8-2.3-3.7-3.6-5.8c-1.3-2.1-2.7-4.2-4.1-6.3c-1.4-2.1-2.9-4.2-4.4-6.1c-1.5-2-2.9-3.8-4.2-5.4
		V33H1.3V0h4.9c1.3,1.3,2.6,2.9,4.1,4.8c1.5,1.8,2.9,3.7,4.4,5.7c1.5,2,2.9,4,4.3,6c1.4,2,2.6,3.8,3.7,5.5V0h6v33H23.6z"/>
</g>
</svg>
